<?xml version="1.0" encoding="UTF-8" standalone="no"?>
<!DOCTYPE svg PUBLIC "-//W3C//DTD SVG 1.1//EN" "http://www.w3.org/Graphics/SVG/1.1/DTD/svg11.dtd">
<svg width="100%" height="100%" viewBox="0 0 300 300" version="1.1" xmlns="http://www.w3.org/2000/svg"
     xml:space="preserve" style="fill-rule:evenodd;clip-rule:evenodd;stroke-linejoin:round;stroke-miterlimit:2;">
    <g id="Layer-4" transform="matrix(1.11283,0,0,1.11283,-1538.16,-613.403)">
        <g transform="matrix(0.00670001,-0.999978,-0.999978,-0.00670001,1518.67,561.011)">
            <path d="M-124.997,-133.061C-51.098,-133.061 8.9,-73.063 8.9,0.837C8.9,74.736 -51.098,134.733 -124.997,134.733C-198.897,134.733 -258.895,74.736 -258.895,0.837C-258.895,-73.063 -198.897,-133.061 -124.997,-133.061ZM-124.997,-120.664C-192.055,-120.664 -246.498,-66.221 -246.498,0.837C-246.498,67.894 -192.055,122.337 -124.997,122.337C-57.94,122.337 -3.497,67.894 -3.497,0.837C-3.497,-66.221 -57.94,-120.664 -124.997,-120.664Z" style="fill:white;"/>
        </g>
        <g transform="matrix(1,0,0,1,-2594.99,16.8414)">
            <path d="M4112.31,553.531L4111.99,553.53C4105.63,553.53 4099.39,554.043 4093.32,555.03L4004.62,712.138C4006.83,717.662 4009.46,722.975 4012.46,728.039L4097.75,576.602C4097.41,579.839 4097.24,582.906 4097.24,585.807L4097.24,782.254L4097.22,783.851C4102.06,784.468 4106.99,784.787 4111.99,784.787L4112.31,784.786L4112.31,673.517L4127.54,673.517C4130.22,673.517 4132.42,673.658 4134.15,673.935C4135.88,674.215 4137.39,674.663 4138.67,675.275C4139.95,675.89 4141.12,676.644 4142.18,677.534C4143.24,678.428 4144.39,679.488 4145.62,680.714L4203.46,739.91C4206.54,735.928 4209.37,731.742 4211.92,727.374L4160.68,673.852C4158.78,671.621 4156.89,669.809 4154.99,668.412C4153.09,667.018 4150.97,665.984 4148.63,665.314C4150.64,664.535 4152.45,663.532 4154.07,662.303C4155.69,661.075 4157.56,659.347 4159.68,657.114L4209.09,606.343C4206.49,602.331 4203.65,598.492 4200.58,594.845L4143.1,653.934C4141.88,655.163 4140.73,656.192 4139.67,657.029C4138.61,657.867 4137.44,658.51 4136.16,658.954C4134.87,659.402 4133.45,659.707 4131.89,659.876C4130.33,660.042 4128.48,660.126 4126.37,660.126L4112.31,660.126L4112.31,553.531Z" style="fill:white;"/>
        </g>
    </g>
</svg>
